<svg viewBox="29.439936 527.36064 919.68 408.96" xmlns="http://www.w3.org/2000/svg" data-name="Layer 1" id="Layer_1" style="max-height: 500px" width="919.68" height="408.96">
  <defs>
    <style>
      .cls-1 {
        fill: #ed4c2f;
      }

      .cls-2, .cls-3 {
        fill: #ee4d2d;
      }

      .cls-3 {
        fill-rule: evenodd;
      }
    </style>
  </defs>
  <path d="m532.15,677.29h-72.98v195.19h29.61v-58.25h46.55c15.6,0,31.09-3.76,44.52-11.71,15.96-9.46,31.92-26.11,31.92-54.9,0-26.99-14.03-44.13-28.93-54.72-14.73-10.47-32.61-15.6-50.68-15.6Zm9.29,105.7h-52.66v-76.5h47.53c.83,0,1.63.04,2.45.13,7.23.81,38.84,6.28,38.84,40.17,0,36.2-36.16,36.2-36.16,36.2Z" class="cls-1"/>
  <path d="m729.08,733.76v13.73c-11.99-9.77-27.27-15.62-43.93-15.62-38.49,0-69.84,31.31-69.84,69.8s31.35,69.84,69.84,69.84c16.65,0,31.94-5.85,43.93-15.62v15.62h29.61v-137.76h-29.61Zm-43.93,111.85c-24.24,0-43.93-19.65-43.93-43.93s19.69-43.89,43.93-43.89,43.9,19.62,43.93,43.84v.11c-.03,24.25-19.67,43.88-43.93,43.88Z" class="cls-1"/>
  <polygon points="772 731.88 811.6 731.88 858.07 820.81 902.89 731.88 938.7 731.88 832.16 930.19 797.3 930.19 837.92 856.58 772 731.88" class="cls-1"/>
  <g data-name="Layer 1-2" id="Layer_1-2">
    <path d="m189.24,171.78H63.03c-3.84,0-6.96-3.12-6.96-6.96h0c0-1.75,1.42-3.16,3.16-3.16h113.1c1.75,0,3.17-1.42,3.17-3.17v-11.4c.02-3.84-3.08-6.97-6.92-6.99-.22,0-.44,0-.66.03l-114.62,10.15c-8.18.71-14.46,7.55-14.45,15.76v110.16c0,8.74,7.08,15.82,15.82,15.82h134.55c8.74,0,15.82-7.08,15.82-15.82v-88.6c0-8.74-7.08-15.82-15.82-15.82Zm-38.99,82.77c-.91,8.04-6.15,14.93-13.65,17.96-4.63,1.88-9.61,2.73-14.6,2.5-6.93-.23-13.72-1.98-19.9-5.12-2.83-1.55-5.5-3.38-7.98-5.45-.56-.47-.85-.89-.31-1.65s2.81-4.2,3.19-4.72c.37-.6,1.15-.78,1.75-.41.1.06.18.13.26.21l.99.74c5.92,4.6,13.54,8.05,22.01,8.37,10.68-.14,18.44-4.9,19.82-12.27,1.53-8.14-4.95-15.09-17.44-18.98-3.97-1.24-13.94-5.18-15.79-6.27-8.69-5.06-12.75-11.68-12.16-19.87.91-11.34,11.46-19.83,24.89-19.87,6.07.02,12.08,1.25,17.67,3.62,2.41,1.05,4.72,2.3,6.92,3.75.66.35.92,1.17.57,1.83-.03.05-.06.1-.09.15-.53.88-2.11,3.34-2.75,4.36-.47.74-1.04.74-1.85.27-6.01-4.01-13.06-6.19-20.29-6.26-9.17.16-16.09,5.58-16.55,13.02-.12,6.66,5.01,11.57,15.9,15.28,22.48,7.15,30.99,15.58,29.38,28.8Z" class="cls-2"/>
    <path d="m280.55,217.19c-12.83-4.12-18.74-9.54-18.75-17.03.37-8.21,8.07-14.47,18.63-14.87,8.37-.03,16.57,2.42,23.54,7.04,1.89,1.15,2.82.74,3.92-.74.12-.19.53-.78,1.87-2.7h0c1.27-1.83,1.77-2.54,1.9-2.76.93-1.73.93-2.65-.97-3.99-2.77-1.75-5.69-3.27-8.72-4.52-6.99-2.81-14.47-4.21-22-4.09-16.89.37-30.1,11.32-30.98,25.74-.56,10.42,4.77,18.8,15.81,24.96,3.14,1.65,14.39,5.86,19.54,7.4,14.71,4.29,22.25,12.11,20.73,21.23-1.41,8.29-10.19,13.88-22.63,14.26-9.09-.19-18.21-3.52-26.11-9.43l-.61-.46-.61-.45c-1.73-1.19-2.96-1.19-4.18.6-.04.07-1,1.53-1.95,2.96-1.12,1.68-1.6,2.41-1.86,2.82-1.02,1.48-.84,2.32.64,3.58h0c3.13,2.52,6.49,4.73,10.05,6.59,7.72,3.76,16.17,5.78,24.76,5.92,6.24.19,12.45-.98,18.19-3.43,9.68-4.3,15.85-12.7,16.93-23.03,1.74-16.8-9.23-27.25-37.13-35.6Z" class="cls-2"/>
    <path d="m358.81,213.01c-6.7,0-13.22,2.16-18.6,6.15v-43.31c0-1.7-.67-2.35-2.35-2.35h-7.86c-1.87,0-2.35.62-2.35,2.35v100.64c0,1.66.48,2.35,2.35,2.35h7.84c1.7,0,2.35-.74,2.35-2.35v-32.87c0-11.22,8.39-18.3,18.62-18.3s18.62,7.07,18.62,18.37v32.79c0,1.9.47,2.35,2.35,2.35h7.82c1.87,0,2.35-.44,2.35-2.35v-32.89c-.07-16.84-14.12-30.59-31.14-30.59Z" class="cls-2"/>
    <path d="m433.61,213.09c-18.61,0-33.7,14.81-33.7,33.01s15.09,33.02,33.7,33.02,33.69-14.81,33.69-33.02-15.09-33.01-33.69-33.01Zm0,53.89c-11.79,0-21.34-9.36-21.34-20.89s9.55-20.89,21.34-20.89,21.33,9.36,21.33,20.89-9.59,20.89-21.34,20.89h0Z" class="cls-2"/>
    <path d="m688.32,250.54h.18c2.1-.12,3.73-1.87,3.7-3.97v-.53c0-18.23-14.29-33.01-31.94-33.01s-31.94,14.81-31.94,33.01c0,1.36.08,2.72.24,4.06l.04.43h0c.85,6.5,3.66,12.59,8.07,17.45l.04.04c5,5.45,11.64,9.12,18.92,10.45l.58.11h0l.87.14c10.12,1.22,18.64-.42,25.55-3.9,1.69-.84,3.3-1.83,4.81-2.96.47-.36.88-.69,1.21-.98.21-.18.35-.31.42-.39,1.78-1.84,1.87-2.64.8-4.3-2.47-3.94-3.86-5.86-3.86-5.86-.96-1.21-1.84-1.48-3.07-.39-.21.19-.41.32-.52.43-7.4,6.55-17.03,7.84-25.49,6.08-1.66-.44-3.29-1.03-4.84-1.77-5.68-2.74-9.78-7.95-11.11-14.11h47.34v-.02Zm-46.57-12.11c2.44-7.99,9.85-13.33,18.51-13.33,8.42.14,15.89,5.43,18.82,13.33h-37.33Z" class="cls-2"/>
    <path d="m510.77,212.91c-7.63-.01-15.04,2.62-20.95,7.46v-5.11c0-1.78-.49-2.35-2.35-2.35h-7.46c-1.87,0-2.35.53-2.35,2.35v95.02c0,1.73.48,2.35,2.35,2.35h7.46c1.87,0,2.35-.61,2.35-2.35v-38.77c14.1,11.6,34.94,9.56,46.53-4.54,11.6-14.1,9.56-34.94-4.54-46.53-5.93-4.87-13.37-7.53-21.04-7.52Zm0,53.9c-11.35.01-20.63-9.02-20.94-20.36v-1.07c.27-11.57,9.86-20.72,21.43-20.45,11.57.27,20.72,9.86,20.45,21.43-.27,11.38-9.56,20.46-20.94,20.46Z" class="cls-2"/>
    <path d="m618.22,246.05c0-18.23-14.3-33.01-31.94-33.01s-31.94,14.81-31.94,33.01c0,1.36.08,2.72.24,4.06l.05.43h0c.85,6.51,3.68,12.6,8.09,17.45v.04c5,5.46,11.66,9.12,18.94,10.45l.58.11h0l.86.14c10.12,1.22,18.64-.42,25.55-3.9,1.69-.84,3.3-1.83,4.81-2.96.47-.36.88-.69,1.22-.98.2-.18.34-.31.41-.39,1.78-1.84,1.87-2.64.8-4.3-2.47-3.94-3.86-5.86-3.86-5.86-.97-1.21-1.84-1.48-3.08-.39-.21.19-.41.32-.52.43-7.4,6.55-17.03,7.84-25.48,6.08-1.67-.44-3.29-1.03-4.85-1.77-5.68-2.74-9.78-7.95-11.11-14.11h47.52c2.1-.12,3.73-1.87,3.7-3.97v-.28c0-.09,0-.18,0-.27Zm-50.43-7.61c2.45-7.99,9.85-13.33,18.51-13.33,8.42.14,15.89,5.43,18.82,13.33h-37.33Z" class="cls-2"/>
    <path d="m712.35,275.55v-98.67c0-2.04,1.66-3.7,3.7-3.7h33.32c18.75.24,34.01,15.55,34.01,34.06s-15.27,33.81-34.06,34.06h-24.1v34.27c0,2.04-1.66,3.7-3.7,3.7h-5.5c-2.04-.02-3.68-1.68-3.67-3.72Zm12.88-47.68h23.99c5.57.02,10.92-2.19,14.86-6.12,3.95-3.9,6.17-9.22,6.15-14.76-.03-11.55-9.4-20.9-20.95-20.89h-24.05v41.78Z" class="cls-3"/>
    <path d="m868.32,308.83l25.22-43.34-30.2-49.44c-.64-1.05-.31-2.41.74-3.05.35-.21.75-.32,1.15-.32h12.22l24.29,39.39,23.46-39.39h11.28c1.23,0,2.22,1,2.22,2.23,0,.39-.11.78-.31,1.12l-56.84,96.14h-11.32c-1.23,0-2.22-1-2.22-2.22,0-.39.1-.78.3-1.12Z" class="cls-3"/>
    <path d="m839.99,275.05v-5.7l-1.88,1.56c-6.14,5.08-13.87,7.86-21.85,7.84-18.51,0-33.56-14.81-33.56-33.04s15.06-32.53,33.56-32.53c7.98-.02,15.7,2.76,21.85,7.84l1.88,1.56v-5.7c0-2.04,1.66-3.7,3.7-3.7h7.68v65.56h-7.68c-2.04,0-3.7-1.66-3.7-3.7h0Zm-23.82-49.56c-11.63,0-21.09,9.09-21.09,20.26s9.63,20.77,21.09,20.77,21.09-9.51,21.09-20.77-9.5-20.26-21.13-20.26h.04Z" class="cls-3"/>
  </g>
  <path d="m376.45,609.34H90.69c-8.7,0-15.76-7.05-15.76-15.76h0c0-3.95,3.2-7.16,7.16-7.16h256.08c3.96,0,7.17-3.21,7.17-7.17v-25.82c.04-8.69-6.97-15.78-15.66-15.82-.5,0-.99.02-1.49.06l-259.5,22.98c-18.52,1.6-32.73,17.1-32.72,35.69v249.41c0,19.78,16.04,35.82,35.82,35.82h304.64c19.78,0,35.82-16.04,35.82-35.82v-200.59c0-19.78-16.04-35.82-35.82-35.82Zm-88.28,187.4c-2.06,18.2-13.93,33.81-30.91,40.67-10.48,4.25-21.76,6.17-33.06,5.65-15.69-.52-31.07-4.47-45.06-11.58-6.41-3.52-12.46-7.65-18.07-12.34-1.27-1.07-1.93-2.01-.7-3.74s6.37-9.5,7.23-10.68c.84-1.35,2.61-1.77,3.97-.94.22.13.42.3.59.48l2.25,1.68c13.41,10.41,30.66,18.22,49.84,18.96,24.19-.32,41.74-11.1,44.88-27.78,3.45-18.44-11.21-34.16-39.48-42.96-8.99-2.8-31.57-11.73-35.74-14.2-19.68-11.46-28.86-26.45-27.54-44.99,2.06-25.66,25.95-44.89,56.36-44.98,13.75.04,27.36,2.83,40.01,8.2,5.45,2.38,10.69,5.22,15.66,8.48,1.5.79,2.08,2.64,1.29,4.14-.06.12-.13.23-.2.33-1.21,1.99-4.78,7.56-6.22,9.87-1.06,1.68-2.35,1.68-4.19.6-13.61-9.08-29.57-14.01-45.93-14.18-20.77.37-36.43,12.62-37.47,29.49-.27,15.09,11.35,26.18,35.99,34.6,50.89,16.19,70.17,35.27,66.52,65.21Z" class="cls-2"/>
  <path d="m494.35,590.54c-12.83-4.12-18.74-9.54-18.75-17.03.37-8.21,8.07-14.47,18.63-14.87,8.37-.03,16.57,2.42,23.54,7.04,1.89,1.15,2.82.74,3.92-.74.12-.19.53-.78,1.87-2.7h0c1.27-1.83,1.77-2.54,1.9-2.76.93-1.73.93-2.65-.97-3.99-2.77-1.75-5.69-3.27-8.72-4.52-6.99-2.81-14.47-4.21-22-4.09-16.89.37-30.1,11.32-30.98,25.74-.56,10.42,4.77,18.8,15.81,24.96,3.14,1.65,14.39,5.86,19.54,7.4,14.71,4.29,22.25,12.11,20.73,21.23-1.41,8.29-10.19,13.88-22.63,14.26-9.09-.19-18.21-3.52-26.11-9.43l-.61-.46-.61-.45c-1.73-1.19-2.96-1.19-4.18.6-.04.07-1,1.53-1.95,2.96-1.12,1.68-1.6,2.41-1.86,2.82-1.02,1.48-.84,2.32.64,3.58h0c3.13,2.52,6.49,4.73,10.05,6.59,7.72,3.76,16.17,5.78,24.76,5.92,6.24.19,12.45-.98,18.19-3.43,9.68-4.3,15.85-12.7,16.93-23.03,1.74-16.8-9.23-27.25-37.13-35.6Z" class="cls-2"/>
  <path d="m572.61,586.36c-6.7,0-13.22,2.16-18.6,6.15v-43.31c0-1.7-.67-2.35-2.35-2.35h-7.86c-1.87,0-2.35.62-2.35,2.35v100.64c0,1.66.48,2.35,2.35,2.35h7.84c1.7,0,2.35-.74,2.35-2.35v-32.87c0-11.22,8.39-18.3,18.62-18.3s18.62,7.07,18.62,18.37v32.79c0,1.9.47,2.35,2.35,2.35h7.82c1.87,0,2.35-.44,2.35-2.35v-32.89c-.07-16.84-14.12-30.59-31.14-30.59Z" class="cls-2"/>
  <path d="m647.4,586.43c-18.61,0-33.7,14.81-33.7,33.01s15.09,33.02,33.7,33.02,33.69-14.81,33.69-33.02-15.09-33.01-33.69-33.01Zm0,53.89c-11.79,0-21.34-9.36-21.34-20.89s9.55-20.89,21.34-20.89,21.33,9.36,21.33,20.89-9.59,20.89-21.34,20.89h0Z" class="cls-2"/>
  <path d="m902.11,623.89h.18c2.1-.12,3.73-1.87,3.7-3.97v-.53c0-18.23-14.29-33.01-31.94-33.01s-31.94,14.81-31.94,33.01c0,1.36.08,2.72.24,4.06l.04.43h0c.85,6.5,3.66,12.59,8.07,17.45l.04.04c5,5.45,11.64,9.12,18.92,10.45l.58.11h0l.87.14c10.12,1.22,18.64-.42,25.55-3.9,1.69-.84,3.3-1.83,4.81-2.96.47-.36.88-.69,1.21-.98.21-.18.35-.31.42-.39,1.78-1.84,1.87-2.64.8-4.3-2.47-3.94-3.86-5.86-3.86-5.86-.96-1.21-1.84-1.48-3.07-.39-.21.19-.41.32-.52.43-7.4,6.55-17.03,7.84-25.49,6.08-1.66-.44-3.29-1.03-4.84-1.77-5.68-2.74-9.78-7.95-11.11-14.11h47.34v-.02Zm-46.57-12.11c2.44-7.99,9.85-13.33,18.51-13.33,8.42.14,15.89,5.43,18.82,13.33h-37.33Z" class="cls-2"/>
  <path d="m724.56,586.26c-7.63-.01-15.04,2.62-20.95,7.46v-5.11c0-1.78-.49-2.35-2.35-2.35h-7.46c-1.87,0-2.35.53-2.35,2.35v95.02c0,1.73.48,2.35,2.35,2.35h7.46c1.87,0,2.35-.61,2.35-2.35v-38.77c14.1,11.6,34.94,9.56,46.53-4.54,11.6-14.1,9.56-34.94-4.54-46.53-5.93-4.87-13.37-7.53-21.04-7.52Zm0,53.9c-11.35.01-20.63-9.02-20.94-20.36v-1.07c.27-11.57,9.86-20.72,21.43-20.45,11.57.27,20.72,9.86,20.45,21.43-.27,11.38-9.56,20.46-20.94,20.46Z" class="cls-2"/>
  <path d="m832.02,619.4c0-18.23-14.3-33.01-31.94-33.01s-31.94,14.81-31.94,33.01c0,1.36.08,2.72.24,4.06l.05.43h0c.85,6.51,3.68,12.6,8.09,17.45v.04c5,5.46,11.66,9.12,18.94,10.45l.58.11h0l.86.14c10.12,1.22,18.64-.42,25.55-3.9,1.69-.84,3.3-1.83,4.81-2.96.47-.36.88-.69,1.22-.98.2-.18.34-.31.41-.39,1.78-1.84,1.87-2.64.8-4.3-2.47-3.94-3.86-5.86-3.86-5.86-.97-1.21-1.84-1.48-3.08-.39-.21.19-.41.32-.52.43-7.4,6.55-17.03,7.84-25.48,6.08-1.67-.44-3.29-1.03-4.85-1.77-5.68-2.74-9.78-7.95-11.11-14.11h47.52c2.1-.12,3.73-1.87,3.7-3.97v-.28c0-.09,0-.18,0-.27Zm-50.43-7.61c2.45-7.99,9.85-13.33,18.51-13.33,8.42.14,15.89,5.43,18.82,13.33h-37.33Z" class="cls-2"/>
</svg>